<svg xmlns="http://www.w3.org/2000/svg" width="24" height="24" viewBox="0 0 24 24">
    <g fill="none" fill-rule="evenodd">
        <path stroke="#FFF" stroke-linecap="round" d="M17.605 18.725c0-.704-.577-1.275-1.289-1.275-.711 0-1.288.57-1.288 1.275 0 .704.577 1.275 1.288 1.275.712 0 1.29-.57 1.29-1.275zm-6.014 0c0-.704-.577-1.275-1.288-1.275-.712 0-1.29.57-1.29 1.275 0 .704.578 1.275 1.29 1.275.711 0 1.288-.57 1.288-1.275zM3 3h2.443c.548 0 1.067.439 1.158.98l1.652 9.806c.183 1.085 1.23 1.964 2.333 1.964h7.02M7.295 5.55h11.602a1 1 0 0 1 .97 1.245l-1.213 4.8a1 1 0 0 1-.97.755H8.311"/>
        <path d="M0 0h24v24H0z"/>
    </g>
</svg>
